<svg xmlns="http://www.w3.org/2000/svg" viewBox="0 0 731.41 792.24"><g id="Calque_2" data-name="Calque 2"><g id="Calque_1-2" data-name="Calque 1"><path d="M165.3,127.48l-19.41,13.88L101.75,79.63l17.38,80.86L105.81,170l-70.89-42.6,44.13,61.73L60.5,202.4,0,117.76,26.88,98.54,94.4,139.05,77.79,62.15l27-19.31Z"/><path d="M186.39,37l4.88,20.39,58.62-14,4.77,19.93L196,77.29l5,21,68.3-16.34,4.77,19.94-91.51,21.9L158.41,22.58,249.91.68l4.77,19.94Z"/><path d="M281.2,88.58l11-17.75a77.36,77.36,0,0,0,41.52,16.63C350.29,89,359.34,85.77,360,78.3c.63-7-4.5-9.77-25.37-13.49-34.16-6.14-45.17-15.27-43.3-36.15C293.18,8.24,311.63-2.24,341,.4,358.72,2,373,7.42,384.43,16.74L374.28,34a63.5,63.5,0,0,0-34.14-13.21c-14.79-1.33-23.84,2-24.47,9s4.5,9.77,25.36,13.49c34.17,6.14,45.18,15.27,43.3,36.15-1.93,21.49-19.86,31.25-52,28.36C311.44,105.89,295,99.65,281.2,88.58Z"/><path d="M552.87,120.5c-11.72,19-29.57,22-51.06,8.78L472.11,111,453.48,141.2l-20.31-12.52,54.58-88.57,50,30.82C559.26,84.18,564.59,101.48,552.87,120.5ZM532,107.65c5-8.07,2.67-14.53-7.36-20.71L497.32,70.08,482.87,93.53l27.35,16.86C520.25,116.57,527.05,115.73,532,107.65Z"/><path d="M572.46,247.43,586,203.3l-16.51-20.49-29.79,24-15-18.58,81-65.29,38.89,48.25c15.17,18.82,14.39,36.15-2.29,49.59-12.86,10.37-25.88,11-38.2,2.1l-14,46.47Zm13-77.48,22.27,27.63c6.63,8.22,12.8,9.54,19.35,4.26s6.58-11.59-.05-19.81l-22.27-27.64Z"/><path d="M642,257c30.65-10.11,58.33,4.92,69.07,37.47s-2.55,61.1-33.21,71.21-58.34-4.91-69.08-37.46S611.31,267.1,642,257Zm28.24,85.58c18.45-6.09,26.92-22.9,20.78-41.5s-23-27.06-41.4-21S622.67,303,628.8,321.58,651.75,348.65,670.21,342.56Z"/><path d="M637.7,381.34l17.48,11.5A33.25,33.25,0,0,0,645.93,417c.22,13.62,7.83,20.38,23,20.14l62.11-1,.39,23.86L667,461.05c-27.38.44-41.7-14.17-42.15-41.7C624.59,403.43,629.13,390.51,637.7,381.34Z"/><path d="M699.51,525.63,679.4,519.7l-17,57.83-19.66-5.8,17-57.82L639,507.8l-19.86,67.37-19.67-5.8,26.62-90.26,99.79,29.43-26.61,90.25L679.65,593Z"/><path d="M607.63,705.15l22.12-31.58-68.42-47.93L575,606.09,643.44,654l22.13-31.58,16.79,11.76-57.94,82.71Z"/><path d="M544.58,669.87l3.68,20.54a77.28,77.28,0,0,0-42,15.3c-13.37,10-18,18.37-13.51,24.38,4.21,5.64,9.88,4.28,27.9-6.87,29.55-18.21,43.84-18.75,56.37-1.94,12.26,16.43,5.5,36.55-18.18,54.2-14.23,10.61-28.47,16.07-43.22,16.76l-3.92-19.59a63.48,63.48,0,0,0,34.24-12.94c11.9-8.87,16.43-17.39,12.22-23s-9.87-4.28-27.9,6.87c-29.55,18.21-43.84,18.75-56.37,2-12.89-17.3-6-36.52,19.84-55.82C510.5,677.14,527,670.79,544.58,669.87Z"/><circle cx="301.73" cy="429.58" r="20.77"/></g></g></svg>