<svg xmlns="http://www.w3.org/2000/svg" viewBox="0 0 684.73 452.6"><g id="Calque_2" data-name="Calque 2"><g id="Calque_1-2" data-name="Calque 1"><path d="M165.3,129.73l-19.41,13.88L101.75,81.88l17.38,80.86-13.32,9.52-70.89-42.6,44.13,61.73L60.5,204.65,0,120l26.88-19.22L94.4,141.3,77.79,64.4l27-19.31Z"/><path d="M165.42,75.49c-6.85-31.55,11-57.5,44.48-64.78s60.5,8.93,67.35,40.48-11,57.5-44.48,64.77S172.27,107,165.42,75.49Zm88.06-19.14c-4.13-19-20-29.17-39.1-25s-29.31,20-25.19,39,20,29.17,39.1,25S257.6,75.34,253.48,56.35Z"/><path d="M416,15,400.47,117.91l-21.79-3.28L334.37,31.84l-11.21,74.43-22.54-3.39L316.11,0l28,4.21,39.36,73.55,10-66.12Z"/><path d="M482,97.48c19.66-27.32,50.23-30.77,79.29-9.86,11.8,8.49,19.89,18.46,24.76,30.82L569,130c-4.74-11-10.55-18.34-18.62-24.15-18.13-13-36.73-10.78-48.53,5.61s-7.73,34.59,11,48.08a57.21,57.21,0,0,0,30.49,10.82l-4.93,20.2c-12.52-.15-26.09-5.39-39.13-14.77C468.79,153.78,462.58,124.43,482,97.48Z"/><path d="M684.73,230.19l-110.3,24.2-14.13-20,59.61-95.91,14.92,21.11-45,69.67L670.43,210Z"/><circle cx="301.73" cy="431.83" r="20.77"/></g></g></svg>