<svg xmlns="http://www.w3.org/2000/svg" viewBox="0 0 803.85 860.79"><g id="Calque_2" data-name="Calque 2"><g id="Calque_1-2" data-name="Calque 1"><path d="M162.5,157.08l-44-14.08L97.84,159.28l23.65,30.06L102.74,204.1,38.41,122.33,87.1,84c19-15,36.32-14,49.56,2.86,10.22,13,10.73,26,1.65,38.22l46.31,14.57ZM85.17,143.16l27.89-21.94c8.3-6.53,9.69-12.68,4.48-19.3s-11.51-6.71-19.81-.18l-27.89,22Z"/><path d="M190.33,49.63l6.76,19.84,57.06-19.42,6.61,19.41L203.69,88.88l6.95,20.42,66.48-22.62,6.61,19.4L194.66,136.4,161.13,37.91,250.21,7.59,256.81,27Z"/><path d="M388.94,20.5l-38.55.63,1.36,83.53-23.87.38-1.36-83.53L288,22.14l-.33-20.5L388.61,0Z"/><path d="M410.6,54.74c10.54-30.51,39.28-43.4,71.67-32.21s47,39.08,36.49,69.59-39.28,43.41-71.67,32.22S400.05,85.26,410.6,54.74Zm85.17,29.44c6.35-18.37-1.89-35.3-20.4-41.69s-35.43,1.83-41.78,20.2S435.48,98,454,104.38,489.42,102.54,495.77,84.18Z"/><path d="M534.7,118.08l41.81-50.59,18.4,15.2-39.37,47.65c-10,12.15-8.23,23.17,5.45,34.47s24.84,11,34.88-1.14L635.24,116l17.58,14.52L611,181.14c-16.38,19.81-39.43,19.61-63.84-.56S518.33,137.9,534.7,118.08Z"/><path d="M635.6,288.58l19.75-41.73L642,224.2,609,243.68l-12.15-20.54,89.53-53L718,223.49c12.31,20.8,9.06,37.84-9.37,48.74-14.22,8.42-27.2,7.21-38.1-3.4l-20.56,44Zm24-74.82,18.08,30.55c5.37,9.09,11.29,11.27,18.53,7s8.17-10.53,2.8-19.61l-18.08-30.55Z"/><path d="M689.26,435.69,687,388.78l-22.46-8.25-1.21-24.91,106.16,40.93L770.65,421,669,472.07l-1.26-26Zm18-39.48,1.47,30.11,37-16.81Zm75,7.38,20.54-21.68,1.1,22.62L783,420.71Z"/><path d="M637.69,614.68l-18.75-8.3,36.83-83.24,95.14,42.09-9.66,21.83-76.39-33.8Z"/><path d="M682,665.52c-13.88-9-19.46-24.58-14-39.26l10.31,2.64c-2.48,7.51-.76,15,4.24,19.68a12.93,12.93,0,0,1,21.56,14.27C699.18,670.44,691.09,671.41,682,665.52Z"/><path d="M578,685l32.27-34.13L600.64,629l17.13-18.12,44,104.94-16.82,17.78-107.25-38,17.87-18.9Zm40.95-14.35-20.71,21.9L636,707.62Z"/><path d="M562.38,738.85c15.93,29.66,5.62,58.64-25.92,75.58-12.8,6.88-25.31,9.78-38.55,8.73L495,802.85c11.93.54,21.11-1.44,29.87-6.15,19.68-10.57,25.8-28.27,16.25-46.06s-27.69-22.12-48-11.19A57.15,57.15,0,0,0,470,762.1l-16-13.29c5.63-11.19,16.29-21.08,30.44-28.69C517.57,702.31,546.67,709.61,562.38,738.85Z"/><path d="M453.48,792.9c5.68,33.18-13.3,57.39-48.59,63.43-14.32,2.46-27.11,1.23-39.33-4l3.68-20.19c11.14,4.3,20.48,5.34,30.28,3.66,22-3.77,33.44-18.61,30-38.52s-19.22-29.77-42-25.87a57.28,57.28,0,0,0-29.09,14.14l-11-17.68c8.89-8.82,22.15-14.81,38-17.52C422.6,744,447.87,760.18,453.48,792.9Z"/><path d="M299.36,836.9l3.18-20.71L243,807.05l3.11-20.27,59.58,9.14,3.27-21.32L239.5,764l3.11-20.26,93,14.26L319.84,860.79l-93-14.27,3.1-20.26Z"/><path d="M214.1,774.05,183.17,832l-21-11.25,29.12-54.52c7.43-13.91,3.46-24.35-12.19-32.71s-26.54-5.85-34,8L116,796.05,95.85,785.31l30.93-57.9c12.11-22.68,34.74-27.06,62.68-12.14S226.21,751.37,214.1,774.05Z"/><path d="M63,756.61l-17.72-16,69.68-77.25,17.73,16Z"/><path d="M29.92,587.53l16.79-11.75,52.21,74.57L13.69,710,0,690.46l68.43-47.91Z"/><circle cx="341.45" cy="429.92" r="20.77"/></g></g></svg>