<svg xmlns="http://www.w3.org/2000/svg" viewBox="0 0 83.874 83.847"><defs><style>.cls-1{font-size:13px;fill:#0ba1ff;font-family:MyriadPro-Regular, Myriad Pro;}.cls-2{fill:#a88776;}</style></defs><title>retour_en_haut</title><g id="Calque_2" data-name="Calque 2"><g id="Calque_1-2" data-name="Calque 1"><text class="cls-1" transform="matrix(0.714, -0.7, 0.7, 0.714, 8.464, 23.714)">R</text><text class="cls-1" transform="matrix(0.824, -0.567, 0.567, 0.824, 13.187, 19.08)">E</text><text class="cls-1" transform="translate(18.318 15.525) rotate(-24.723)">T</text><text class="cls-1" transform="translate(23.465 12.947) rotate(-13.715)">O</text><text class="cls-1" transform="matrix(1, -0.017, 0.017, 1, 31.676, 10.922)">U</text><text class="cls-1" transform="matrix(0.984, 0.18, -0.18, 0.984, 39.689, 10.816)">R</text><text class="cls-1" transform="translate(46.282 12.145) rotate(17.677)"> </text><text class="cls-1" transform="translate(48.712 12.79) rotate(24.504)">E</text><text class="cls-1" transform="translate(54.241 15.156) rotate(35.589)">N</text><text class="cls-1" transform="matrix(0.721, 0.693, -0.693, 0.721, 60.809, 20.083)"> </text><text class="cls-1" transform="translate(62.752 21.637) rotate(52.181)">H</text><text class="cls-1" transform="matrix(0.433, 0.902, -0.902, 0.433, 67.703, 27.986)">A</text><text class="cls-1" transform="matrix(0.242, 0.97, -0.97, 0.242, 70.904, 34.418)">U</text><text class="cls-1" transform="translate(72.781 42.185) rotate(87.008)">T</text><circle class="cls-2" cx="36.5" cy="47.347" r="4.25"/></g></g></svg>